<mxfile host="app.diagrams.net" modified="2022-04-26T12:10:00.629Z" agent="5.0 (Windows NT 10.0; Win64; x64) AppleWebKit/537.36 (KHTML, like Gecko) Chrome/98.0.4758.102 Safari/537.36" etag="UUfBk3LRxJyH5I01zTtz" version="15.8.6" type="github">
  <diagram id="mPXVBvc42pHDKVIPFFId" name="Page-1">
    <mxGraphModel dx="1422" dy="794" grid="1" gridSize="10" guides="1" tooltips="1" connect="1" arrows="1" fold="1" page="1" pageScale="1" pageWidth="827" pageHeight="1169" math="0" shadow="0">
      <root>
        <mxCell id="0" />
        <mxCell id="1" parent="0" />
        <mxCell id="g_9wReLTdOW9S_xXq5gn-55" value="" style="edgeStyle=orthogonalEdgeStyle;curved=1;rounded=0;orthogonalLoop=1;jettySize=auto;html=1;" edge="1" parent="1" source="g_9wReLTdOW9S_xXq5gn-1" target="g_9wReLTdOW9S_xXq5gn-46">
          <mxGeometry relative="1" as="geometry" />
        </mxCell>
        <mxCell id="g_9wReLTdOW9S_xXq5gn-1" value="" style="rounded=0;whiteSpace=wrap;html=1;fillColor=#f5f5f5;fontColor=#333333;strokeColor=#666666;" vertex="1" parent="1">
          <mxGeometry x="240" y="260" width="510" height="70" as="geometry" />
        </mxCell>
        <mxCell id="g_9wReLTdOW9S_xXq5gn-2" value="" style="rounded=0;whiteSpace=wrap;html=1;fillColor=#dae8fc;strokeColor=#6c8ebf;" vertex="1" parent="1">
          <mxGeometry x="240" y="360" width="510" height="70" as="geometry" />
        </mxCell>
        <mxCell id="g_9wReLTdOW9S_xXq5gn-57" value="" style="edgeStyle=orthogonalEdgeStyle;curved=1;rounded=0;orthogonalLoop=1;jettySize=auto;html=1;" edge="1" parent="1" source="g_9wReLTdOW9S_xXq5gn-6" target="g_9wReLTdOW9S_xXq5gn-49">
          <mxGeometry relative="1" as="geometry" />
        </mxCell>
        <mxCell id="g_9wReLTdOW9S_xXq5gn-6" value="" style="rounded=0;whiteSpace=wrap;html=1;fillColor=#ffe6cc;strokeColor=#d79b00;" vertex="1" parent="1">
          <mxGeometry x="240" y="460" width="510" height="60" as="geometry" />
        </mxCell>
        <mxCell id="g_9wReLTdOW9S_xXq5gn-58" value="" style="edgeStyle=orthogonalEdgeStyle;curved=1;rounded=0;orthogonalLoop=1;jettySize=auto;html=1;" edge="1" parent="1" source="g_9wReLTdOW9S_xXq5gn-8" target="g_9wReLTdOW9S_xXq5gn-50">
          <mxGeometry relative="1" as="geometry" />
        </mxCell>
        <mxCell id="g_9wReLTdOW9S_xXq5gn-8" value="" style="rounded=0;whiteSpace=wrap;html=1;fillColor=#e1d5e7;strokeColor=#9673a6;" vertex="1" parent="1">
          <mxGeometry x="240" y="560" width="510" height="60" as="geometry" />
        </mxCell>
        <mxCell id="g_9wReLTdOW9S_xXq5gn-10" value="" style="rounded=0;whiteSpace=wrap;html=1;fillColor=#ffcccc;strokeColor=#36393d;" vertex="1" parent="1">
          <mxGeometry x="240" y="660" width="510" height="60" as="geometry" />
        </mxCell>
        <mxCell id="g_9wReLTdOW9S_xXq5gn-17" value="" style="edgeStyle=orthogonalEdgeStyle;rounded=0;orthogonalLoop=1;jettySize=auto;html=1;fillColor=#f5f5f5;strokeColor=#666666;" edge="1" parent="1" source="g_9wReLTdOW9S_xXq5gn-13" target="g_9wReLTdOW9S_xXq5gn-14">
          <mxGeometry relative="1" as="geometry" />
        </mxCell>
        <mxCell id="g_9wReLTdOW9S_xXq5gn-13" value="Compiler Env" style="rounded=1;whiteSpace=wrap;html=1;fillColor=#f5f5f5;fontColor=#333333;strokeColor=#666666;" vertex="1" parent="1">
          <mxGeometry x="240" y="290" width="100" height="30" as="geometry" />
        </mxCell>
        <mxCell id="g_9wReLTdOW9S_xXq5gn-18" value="" style="edgeStyle=orthogonalEdgeStyle;rounded=0;orthogonalLoop=1;jettySize=auto;html=1;fillColor=#f5f5f5;strokeColor=#666666;" edge="1" parent="1" source="g_9wReLTdOW9S_xXq5gn-14" target="g_9wReLTdOW9S_xXq5gn-15">
          <mxGeometry relative="1" as="geometry" />
        </mxCell>
        <mxCell id="g_9wReLTdOW9S_xXq5gn-14" value="JFrog" style="rounded=1;whiteSpace=wrap;html=1;fillColor=#f5f5f5;fontColor=#333333;strokeColor=#666666;" vertex="1" parent="1">
          <mxGeometry x="380" y="290" width="100" height="30" as="geometry" />
        </mxCell>
        <mxCell id="g_9wReLTdOW9S_xXq5gn-19" value="" style="edgeStyle=orthogonalEdgeStyle;rounded=0;orthogonalLoop=1;jettySize=auto;html=1;fillColor=#f5f5f5;strokeColor=#666666;" edge="1" parent="1" source="g_9wReLTdOW9S_xXq5gn-15" target="g_9wReLTdOW9S_xXq5gn-16">
          <mxGeometry relative="1" as="geometry" />
        </mxCell>
        <mxCell id="g_9wReLTdOW9S_xXq5gn-15" value="Conan" style="rounded=1;whiteSpace=wrap;html=1;fillColor=#f5f5f5;fontColor=#333333;strokeColor=#666666;" vertex="1" parent="1">
          <mxGeometry x="520" y="290" width="100" height="30" as="geometry" />
        </mxCell>
        <mxCell id="g_9wReLTdOW9S_xXq5gn-16" value="Permission" style="rounded=1;whiteSpace=wrap;html=1;fillColor=#f5f5f5;fontColor=#333333;strokeColor=#666666;" vertex="1" parent="1">
          <mxGeometry x="650" y="290" width="100" height="30" as="geometry" />
        </mxCell>
        <mxCell id="g_9wReLTdOW9S_xXq5gn-22" value="" style="edgeStyle=orthogonalEdgeStyle;rounded=0;orthogonalLoop=1;jettySize=auto;html=1;fillColor=#dae8fc;strokeColor=#6c8ebf;" edge="1" source="g_9wReLTdOW9S_xXq5gn-23" target="g_9wReLTdOW9S_xXq5gn-25" parent="1">
          <mxGeometry relative="1" as="geometry" />
        </mxCell>
        <mxCell id="g_9wReLTdOW9S_xXq5gn-23" value="Buildroot" style="rounded=1;whiteSpace=wrap;html=1;fillColor=#dae8fc;strokeColor=#6c8ebf;" vertex="1" parent="1">
          <mxGeometry x="240" y="390" width="100" height="30" as="geometry" />
        </mxCell>
        <mxCell id="g_9wReLTdOW9S_xXq5gn-24" value="" style="edgeStyle=orthogonalEdgeStyle;rounded=0;orthogonalLoop=1;jettySize=auto;html=1;fillColor=#dae8fc;strokeColor=#6c8ebf;" edge="1" source="g_9wReLTdOW9S_xXq5gn-25" target="g_9wReLTdOW9S_xXq5gn-27" parent="1">
          <mxGeometry relative="1" as="geometry" />
        </mxCell>
        <mxCell id="g_9wReLTdOW9S_xXq5gn-56" value="" style="edgeStyle=orthogonalEdgeStyle;curved=1;rounded=0;orthogonalLoop=1;jettySize=auto;html=1;" edge="1" parent="1" source="g_9wReLTdOW9S_xXq5gn-25" target="g_9wReLTdOW9S_xXq5gn-48">
          <mxGeometry relative="1" as="geometry" />
        </mxCell>
        <mxCell id="g_9wReLTdOW9S_xXq5gn-25" value="Sensetime Libs" style="rounded=1;whiteSpace=wrap;html=1;fillColor=#dae8fc;strokeColor=#6c8ebf;" vertex="1" parent="1">
          <mxGeometry x="450" y="390" width="100" height="30" as="geometry" />
        </mxCell>
        <mxCell id="g_9wReLTdOW9S_xXq5gn-27" value="Device Providor Libs" style="rounded=1;whiteSpace=wrap;html=1;fillColor=#dae8fc;strokeColor=#6c8ebf;" vertex="1" parent="1">
          <mxGeometry x="630" y="390" width="120" height="30" as="geometry" />
        </mxCell>
        <mxCell id="g_9wReLTdOW9S_xXq5gn-32" style="edgeStyle=orthogonalEdgeStyle;curved=1;rounded=0;orthogonalLoop=1;jettySize=auto;html=1;exitX=1;exitY=0.5;exitDx=0;exitDy=0;entryX=0;entryY=0.5;entryDx=0;entryDy=0;fillColor=#ffe6cc;strokeColor=#d79b00;" edge="1" parent="1" source="g_9wReLTdOW9S_xXq5gn-29" target="g_9wReLTdOW9S_xXq5gn-30">
          <mxGeometry relative="1" as="geometry" />
        </mxCell>
        <mxCell id="g_9wReLTdOW9S_xXq5gn-29" value="Southbound" style="rounded=1;whiteSpace=wrap;html=1;fillColor=#ffe6cc;strokeColor=#d79b00;" vertex="1" parent="1">
          <mxGeometry x="240" y="490" width="200" height="30" as="geometry" />
        </mxCell>
        <mxCell id="g_9wReLTdOW9S_xXq5gn-30" value="Southbound Impl" style="rounded=1;whiteSpace=wrap;html=1;fillColor=#ffe6cc;strokeColor=#d79b00;" vertex="1" parent="1">
          <mxGeometry x="560" y="490" width="190" height="30" as="geometry" />
        </mxCell>
        <mxCell id="g_9wReLTdOW9S_xXq5gn-34" value="Config" style="rounded=1;whiteSpace=wrap;html=1;fillColor=#e1d5e7;strokeColor=#9673a6;" vertex="1" parent="1">
          <mxGeometry x="240" y="590" width="130" height="30" as="geometry" />
        </mxCell>
        <mxCell id="g_9wReLTdOW9S_xXq5gn-35" value="Scripts" style="rounded=1;whiteSpace=wrap;html=1;fillColor=#e1d5e7;strokeColor=#9673a6;" vertex="1" parent="1">
          <mxGeometry x="440" y="590" width="130" height="30" as="geometry" />
        </mxCell>
        <mxCell id="g_9wReLTdOW9S_xXq5gn-36" value="CMakeList" style="rounded=1;whiteSpace=wrap;html=1;fillColor=#e1d5e7;strokeColor=#9673a6;" vertex="1" parent="1">
          <mxGeometry x="620" y="590" width="130" height="30" as="geometry" />
        </mxCell>
        <mxCell id="g_9wReLTdOW9S_xXq5gn-38" value="Face" style="rounded=1;whiteSpace=wrap;html=1;fillColor=#ffcccc;strokeColor=#36393d;" vertex="1" parent="1">
          <mxGeometry x="240" y="690" width="130" height="30" as="geometry" />
        </mxCell>
        <mxCell id="g_9wReLTdOW9S_xXq5gn-40" value="Body" style="rounded=1;whiteSpace=wrap;html=1;fillColor=#ffcccc;strokeColor=#36393d;" vertex="1" parent="1">
          <mxGeometry x="440" y="690" width="130" height="30" as="geometry" />
        </mxCell>
        <mxCell id="g_9wReLTdOW9S_xXq5gn-41" value="Struct" style="rounded=1;whiteSpace=wrap;html=1;fillColor=#ffcccc;strokeColor=#36393d;" vertex="1" parent="1">
          <mxGeometry x="620" y="690" width="130" height="30" as="geometry" />
        </mxCell>
        <mxCell id="g_9wReLTdOW9S_xXq5gn-44" value="开发环境搭建" style="text;html=1;strokeColor=none;fillColor=none;align=center;verticalAlign=middle;whiteSpace=wrap;rounded=0;" vertex="1" parent="1">
          <mxGeometry x="458.75" y="260" width="82.5" height="30" as="geometry" />
        </mxCell>
        <mxCell id="g_9wReLTdOW9S_xXq5gn-46" value="&lt;span style=&quot;font-family: &amp;#34;helvetica&amp;#34;&quot;&gt;依赖库编译&lt;/span&gt;" style="text;html=1;strokeColor=none;fillColor=none;align=center;verticalAlign=middle;whiteSpace=wrap;rounded=0;" vertex="1" parent="1">
          <mxGeometry x="460" y="360" width="70" height="30" as="geometry" />
        </mxCell>
        <mxCell id="g_9wReLTdOW9S_xXq5gn-48" value="南向接口适配" style="text;html=1;strokeColor=none;fillColor=none;align=center;verticalAlign=middle;whiteSpace=wrap;rounded=0;" vertex="1" parent="1">
          <mxGeometry x="455" y="460" width="90" height="30" as="geometry" />
        </mxCell>
        <mxCell id="g_9wReLTdOW9S_xXq5gn-49" value="Nano新平台适配" style="text;html=1;strokeColor=none;fillColor=none;align=center;verticalAlign=middle;whiteSpace=wrap;rounded=0;" vertex="1" parent="1">
          <mxGeometry x="445" y="560" width="100" height="30" as="geometry" />
        </mxCell>
        <mxCell id="g_9wReLTdOW9S_xXq5gn-50" value="业务功能测验" style="text;html=1;strokeColor=none;fillColor=none;align=center;verticalAlign=middle;whiteSpace=wrap;rounded=0;" vertex="1" parent="1">
          <mxGeometry x="450" y="660" width="90" height="30" as="geometry" />
        </mxCell>
      </root>
    </mxGraphModel>
  </diagram>
</mxfile>
